<?xml version="1.0" standalone="no"?>
<svg xmlns="http://www.w3.org/2000/svg" viewBox="0 0 152.52 29" width="152.52" height="29"><g fill="#ff6506" color="#ff6506" transform="translate(0, 0) scale(0.29)"><svg width="100.0" height="100.0" x="0.0" y="0.0" viewBox="0 0 100 100"><path fill="none" stroke="currentColor" stroke-width="3" stroke-linecap="round" stroke-linejoin="round" stroke-miterlimit="10" d="  M43.819,75.557c3.186-0.293,6.129,2.536,9.568,3.25c3.438,0.712,20.231-3.07,15.201-7.343c-5.028-4.273-11.377-1.408-18.808-5.613  c-7.429-4.206-15.875-7.4-20.681-6.658C24.293,59.932,8.483,70.224,8.483,70.224l6.084,15.061  c9.976-9.534,23.957,3.354,31.449,3.231c0,0,16.986,4.211,29.048-8.68c4.581-4.896,15.971-12.533,15.971-12.533  c-1.138-4.452-1.933-5.056-1.933-5.056c-2.79-4.695-19.086,10.804-19.086,10.804"></path><line fill="none" stroke="currentColor" stroke-width="3" stroke-linecap="round" stroke-linejoin="round" stroke-miterlimit="10" x1="19.59" y1="82.296" x2="13.149" y2="67.289"></line><path fill="none" stroke="currentColor" stroke-width="3" stroke-linecap="round" stroke-linejoin="round" stroke-miterlimit="10" d="  M38.816,75.405c0,0-1.931-0.182-4.568-0.025"></path><polygon points="66.756,15.027 66.756,23.345 75.712,23.345 "></polygon><path fill="none" stroke="currentColor" stroke-width="2.7" stroke-linejoin="round" stroke-miterlimit="10" d="M75.712,47.317V23.131  l-8.956-8.104H44.425c-1.211,0-2.192,0.982-2.192,2.193v40.972l2.66,1.82l1.707,0.18l3.039-0.477l1.709,2.477l3.404-2.18l1.764,2.18  l3.382-2.18l1.259,2.18l2.663-2.18l2.331,2.18l3.681-2.18"></path><line fill="none" stroke="currentColor" stroke-width="2" stroke-linecap="round" stroke-linejoin="round" stroke-miterlimit="10" x1="51.639" y1="32.366" x2="69.311" y2="32.366"></line><line fill="none" stroke="currentColor" stroke-width="2" stroke-linecap="round" stroke-linejoin="round" stroke-miterlimit="10" x1="51.639" y1="28.3" x2="69.311" y2="28.3"></line><line fill="none" stroke="currentColor" stroke-width="2" stroke-linecap="round" stroke-linejoin="round" stroke-miterlimit="10" x1="51.639" y1="36.389" x2="69.311" y2="36.389"></line><line fill="none" stroke="currentColor" stroke-width="2" stroke-linecap="round" stroke-linejoin="round" stroke-miterlimit="10" x1="51.639" y1="40.413" x2="69.311" y2="40.413"></line><line fill="none" stroke="currentColor" stroke-width="2" stroke-linecap="round" stroke-linejoin="round" stroke-miterlimit="10" x1="64.303" y1="45.001" x2="69.311" y2="45.001"></line><path d="M74.947,46.265c-4.913,0-8.896,3.983-8.896,8.896s3.983,8.896,8.896,8.896c4.912,0,8.896-3.982,8.896-8.896  S79.859,46.265,74.947,46.265z M77.94,58.031c-0.325,1.235-1.059,1.79-1.617,2.037c-0.168,0.075-0.341,0.127-0.516,0.167v0.793  c0,0.475-0.386,0.861-0.86,0.861c-0.476,0-0.86-0.386-0.86-0.861v-0.784c-0.918-0.17-1.654-0.536-1.787-0.605  c-0.423-0.219-0.587-0.739-0.366-1.161c0.218-0.422,0.736-0.585,1.159-0.367c0.41,0.21,1.753,0.73,2.535,0.382  c0.2-0.089,0.484-0.28,0.647-0.9c0.218-0.831-0.024-1.086-1.621-1.712c-1.163-0.455-2.757-1.079-2.817-2.844  c-0.045-1.274,0.513-1.94,0.986-2.273c0.369-0.26,0.809-0.397,1.264-0.457v-0.74c0-0.475,0.386-0.86,0.861-0.86l0,0  c0.474,0,0.86,0.385,0.86,0.861v0.813c0.818,0.148,1.477,0.397,1.618,0.454c0.441,0.176,0.657,0.677,0.481,1.118  c-0.178,0.441-0.677,0.657-1.119,0.481c-0.864-0.342-2.41-0.663-2.976-0.263c-0.068,0.048-0.278,0.197-0.257,0.805  c0.021,0.573,0.567,0.848,1.725,1.301C76.516,54.762,78.584,55.571,77.94,58.031z"></path><line fill="none" stroke="currentColor" stroke-width="2" stroke-linecap="round" stroke-linejoin="round" stroke-miterlimit="10" x1="51.639" y1="45.001" x2="53.377" y2="45.001"></line><line fill="none" stroke="currentColor" stroke-width="2" stroke-linecap="round" stroke-linejoin="round" stroke-miterlimit="10" x1="51.639" y1="49.019" x2="53.377" y2="49.019"></line><line fill="none" stroke="currentColor" stroke-width="2" stroke-linecap="round" stroke-linejoin="round" stroke-miterlimit="10" x1="57.376" y1="45.001" x2="59.116" y2="45.001"></line><line fill="none" stroke="currentColor" stroke-width="2" stroke-linecap="round" stroke-linejoin="round" stroke-miterlimit="10" x1="57.376" y1="49.019" x2="59.116" y2="49.019"></line><circle cx="48.549" cy="28.288" r="0.955"></circle><circle cx="48.549" cy="32.469" r="0.955"></circle><circle cx="48.549" cy="36.127" r="0.955"></circle><circle cx="48.549" cy="40.309" r="0.955"></circle></svg></g><line x1="41" y1="1" x2="41" y2="28" stroke="#00005f" stroke-linecap="round"></line><path fill="#00005f" fill-rule="nonzero" d="M7.08 18.38L0 18.38L0 17.23L1.39 17.02Q1.85 16.94 1.99 16.70Q2.14 16.46 2.14 15.79L2.14 15.79L2.14 4.08Q2.14 3.46 1.98 3.24Q1.82 3.02 1.34 2.95L1.34 2.95L0 2.74L0 1.58L11.38 1.58L12.24 5.88L10.99 6.31Q10.46 4.85 9.98 4.12Q9.50 3.38 8.83 3.13Q8.16 2.88 7.01 2.88L7.01 2.88L4.51 2.88L4.51 9.58L6.60 9.58Q7.49 9.58 7.90 9.48Q8.30 9.38 8.47 8.96Q8.64 8.54 8.83 7.61L8.83 7.61L9.94 7.46L9.94 13.39L8.83 13.58Q8.66 12.41 8.48 11.88Q8.30 11.35 7.88 11.21Q7.46 11.06 6.60 11.06L6.60 11.06L4.51 11.06L4.51 15.84Q4.51 16.49 4.69 16.74Q4.87 16.99 5.40 17.04L5.40 17.04L7.08 17.23L7.08 18.38ZM17.88 18.72L17.88 18.72Q16.37 18.72 15.44 17.83Q14.52 16.94 14.52 15.48L14.52 15.48Q14.52 14.16 15.18 13.34Q15.84 12.53 17.35 12.11Q18.86 11.69 21.41 11.57L21.41 11.57L21.41 9.94Q21.41 8.45 20.78 7.78Q20.16 7.10 18.82 7.10L18.82 7.10Q18.17 7.10 17.53 7.31Q16.90 7.51 16.61 7.82L16.61 7.82Q17.23 8.86 17.23 9.17L17.23 9.17Q17.23 9.62 16.86 9.94Q16.49 10.25 15.94 10.25L15.94 10.25Q15.29 10.25 14.93 9.92Q14.57 9.60 14.57 9L14.57 9Q14.57 8.16 15.20 7.45Q15.84 6.74 16.88 6.31Q17.93 5.88 19.15 5.88L19.15 5.88Q21.43 5.88 22.54 6.94Q23.64 7.99 23.64 10.20L23.64 10.20L23.64 15.98Q23.64 17.04 24.72 17.04L24.72 17.04Q24.98 17.04 25.25 16.99Q25.51 16.94 25.85 16.85L25.85 16.85L26.09 17.76Q25.66 18.17 25.03 18.44Q24.41 18.72 23.88 18.72L23.88 18.72Q22.85 18.72 22.28 18.18Q21.72 17.64 21.60 16.58L21.60 16.58Q20.26 18.72 17.88 18.72ZM18.79 17.06L18.79 17.06Q19.92 17.06 20.66 16.33Q21.41 15.60 21.41 14.52L21.41 14.52L21.41 12.82Q19.08 12.82 17.96 13.40Q16.85 13.99 16.85 15.22L16.85 15.22Q16.85 16.08 17.38 16.57Q17.90 17.06 18.79 17.06ZM32.98 18.72L32.98 18.72Q31.25 18.72 29.98 17.95Q28.70 17.18 28.01 15.78Q27.31 14.38 27.31 12.46L27.31 12.46Q27.31 10.46 28.04 8.99Q28.78 7.51 30.10 6.70Q31.42 5.88 33.17 5.88L33.17 5.88Q34.39 5.88 35.36 6.29Q36.34 6.70 36.90 7.40Q37.46 8.11 37.46 9.02L37.46 9.02Q37.46 9.74 37.03 10.16Q36.60 10.58 35.88 10.58L35.88 10.58Q35.45 10.58 35.12 10.44Q34.80 10.30 34.63 10.04Q34.46 9.79 34.46 9.43L34.46 9.43Q34.46 9.14 34.61 8.78Q34.75 8.42 35.14 7.80L35.14 7.80Q34.68 7.46 34.20 7.34Q33.72 7.22 32.98 7.22L32.98 7.22Q32.04 7.22 31.31 7.82Q30.58 8.42 30.16 9.49Q29.74 10.56 29.74 11.95L29.74 11.95Q29.74 14.23 30.77 15.55Q31.80 16.87 33.58 16.87L33.58 16.87Q34.49 16.87 35.28 16.55Q36.07 16.22 36.67 15.62L36.67 15.62L37.49 16.46Q36.72 17.50 35.52 18.11Q34.32 18.72 32.98 18.72ZM44.16 18.72L44.16 18.72Q42.53 18.72 41.75 17.84Q40.97 16.97 40.97 15.14L40.97 15.14L40.97 7.73L39.07 7.73L39.07 6.48Q39.91 6.41 40.46 5.96Q41.02 5.52 41.33 4.60Q41.64 3.67 41.74 2.21L41.74 2.21L42.89 2.06L43.20 2.21L43.20 6.22L46.94 6.22L46.94 7.73L43.20 7.73L43.20 14.98Q43.20 15.98 43.62 16.48Q44.04 16.97 44.90 16.97L44.90 16.97Q45.53 16.97 46.08 16.78Q46.63 16.58 47.21 16.20L47.21 16.20L47.76 17.06Q46.99 17.86 46.06 18.29Q45.12 18.72 44.16 18.72ZM54.24 18.72L54.24 18.72Q52.99 18.72 52.13 18.25Q51.26 17.78 50.83 16.87Q50.40 15.96 50.40 14.62L50.40 14.62L50.40 9.12Q50.40 8.26 50.26 7.99Q50.11 7.73 49.58 7.63L49.58 7.63L48.53 7.46L48.72 6.31L52.34 6.05L52.63 6.22L52.63 13.92Q52.63 15.07 52.85 15.74Q53.06 16.42 53.57 16.70Q54.07 16.99 54.94 16.99L54.94 16.99Q56.42 16.99 57.30 16.09Q58.18 15.19 58.18 13.66L58.18 13.66L58.18 9.12Q58.18 8.26 58.03 7.99Q57.89 7.73 57.36 7.63L57.36 7.63L56.28 7.46L56.47 6.31L60.12 6.05L60.41 6.22L60.41 15.96Q60.41 16.54 60.56 16.74Q60.72 16.94 61.18 17.04L61.18 17.04L62.38 17.26L62.38 18.38L58.66 18.53L58.32 16.58L58.25 16.58Q57.62 17.33 57 17.80Q56.38 18.26 55.70 18.49Q55.03 18.72 54.24 18.72ZM69.12 18.72L69.12 18.72Q66.79 18.72 65.50 17.12Q64.20 15.53 64.20 12.67L64.20 12.67Q64.20 10.58 64.92 9.06Q65.64 7.54 66.95 6.71Q68.26 5.88 70.06 5.88L70.06 5.88Q70.85 5.88 71.65 6.10Q72.46 6.31 73.01 6.67L73.01 6.67L73.01 2.93Q73.01 2.09 72.83 1.84Q72.65 1.58 71.98 1.49L71.98 1.49L70.92 1.32L71.06 0.12L74.98 0L75.24 0.26L75.24 16.03Q75.24 16.61 75.40 16.81Q75.55 17.02 76.03 17.11L76.03 17.11L77.21 17.33L77.21 18.46L73.51 18.60L73.18 16.70L73.10 16.70Q72.31 17.71 71.32 18.22Q70.32 18.72 69.12 18.72ZM69.82 16.99L69.82 16.99Q70.78 16.99 71.48 16.52Q72.19 16.06 72.60 15.22Q73.01 14.38 73.01 13.30L73.01 13.30L73.01 8.47Q72.41 7.99 71.63 7.74Q70.85 7.49 70.01 7.49L70.01 7.49Q68.30 7.49 67.44 8.74Q66.58 9.98 66.58 12.43L66.58 12.43Q66.58 14.64 67.42 15.82Q68.26 16.99 69.82 16.99ZM84.62 18.72L84.62 18.72Q82.87 18.72 81.59 17.95Q80.30 17.18 79.60 15.77Q78.89 14.35 78.89 12.46L78.89 12.46Q78.89 10.46 79.62 8.99Q80.35 7.51 81.67 6.70Q82.99 5.88 84.74 5.88L84.74 5.88Q86.74 5.88 87.95 7.04Q89.16 8.21 89.16 10.13L89.16 10.13Q89.16 10.63 89.08 11.23Q88.99 11.83 88.82 12.48L88.82 12.48L81.31 12.48Q81.38 14.59 82.40 15.77Q83.42 16.94 85.18 16.94L85.18 16.94Q86.09 16.94 86.95 16.56Q87.82 16.18 88.49 15.50L88.49 15.50L89.33 16.34Q88.80 17.06 88.04 17.60Q87.29 18.14 86.41 18.43Q85.54 18.72 84.62 18.72ZM81.31 11.14L81.31 11.14L86.83 11.14Q86.88 10.90 86.89 10.62Q86.90 10.34 86.90 10.03L86.90 10.03Q86.90 8.62 86.29 7.88Q85.68 7.15 84.48 7.15L84.48 7.15Q83.11 7.15 82.31 8.17Q81.50 9.19 81.31 11.14ZM97.01 18.72L97.01 18.72Q95.28 18.72 94.01 17.95Q92.74 17.18 92.04 15.78Q91.34 14.38 91.34 12.46L91.34 12.46Q91.34 10.46 92.08 8.99Q92.81 7.51 94.13 6.70Q95.45 5.88 97.20 5.88L97.20 5.88Q98.42 5.88 99.40 6.29Q100.37 6.70 100.93 7.40Q101.50 8.11 101.50 9.02L101.50 9.02Q101.50 9.74 101.06 10.16Q100.63 10.58 99.91 10.58L99.91 10.58Q99.48 10.58 99.16 10.44Q98.83 10.30 98.66 10.04Q98.50 9.79 98.50 9.43L98.50 9.43Q98.50 9.14 98.64 8.78Q98.78 8.42 99.17 7.80L99.17 7.80Q98.71 7.46 98.23 7.34Q97.75 7.22 97.01 7.22L97.01 7.22Q96.07 7.22 95.34 7.82Q94.61 8.42 94.19 9.49Q93.77 10.56 93.77 11.95L93.77 11.95Q93.77 14.23 94.80 15.55Q95.83 16.87 97.61 16.87L97.61 16.87Q98.52 16.87 99.31 16.55Q100.10 16.22 100.70 15.62L100.70 15.62L101.52 16.46Q100.75 17.50 99.55 18.11Q98.35 18.72 97.01 18.72Z" transform="translate(51, 5.308)"></path></svg>